<?xml version="1.0" standalone="no"?>
<!DOCTYPE svg PUBLIC "-//W3C//DTD SVG 20010904//EN" "http://www.w3.org/TR/2001/REC-SVG-20010904/DTD/svg10.dtd">
<!-- Created using Krita: https://krita.org -->
<svg xmlns="http://www.w3.org/2000/svg" 
    xmlns:xlink="http://www.w3.org/1999/xlink"
    xmlns:krita="http://krita.org/namespaces/svg/krita"
    xmlns:sodipodi="http://sodipodi.sourceforge.net/DTD/sodipodi-0.dtd"
    width="285.12pt"
    height="459.36pt"
    viewBox="0 0 285.12 459.36">
<defs/>
<path id="shape0" transform="translate(172.440000067238, 10.8745883974662)" fill="#d00000" fill-rule="evenodd" stroke="none" stroke-width="1" stroke-linecap="square" stroke-linejoin="miter" stroke-miterlimit="2" d="M69.5475 5.07791C64.5214 8.04243 35.3403 29.1518 37.53 57.2554C39.1433 77.9607 45.2837 98.367 43.47 105.36C43.8813 125.9 13.9658 141.83 0 146.445C2.45857 151.039 5.87842 153.229 9 156.165C13.8525 161.528 16.14 160.677 20.9925 165.115C25.845 169.553 24.8925 169.425 29.745 178.665C48.4283 174.108 84.5834 141.86 80.505 115.845C81.0829 110.9 80.0856 102.326 77.5131 90.123C67.8306 66.9405 63.6829 51.1097 65.07 42.6304C69.3137 10.9675 80.4691 14.9897 87.21 6.31541C89.6438 3.32327 89.4058 2.02466 87.21 0.420412C85.0142 -1.18383 74.5736 2.11339 69.5475 5.07791Z" sodipodi:nodetypes="csccccccccczz"/><path id="shape01" transform="translate(172.440000067238, 10.8745897901505)" fill="#d00000" fill-rule="evenodd" stroke-opacity="0" stroke="#000000" stroke-width="0" stroke-linecap="square" stroke-linejoin="bevel" d="M69.5475 5.07791C64.5214 8.04243 35.3403 29.1518 37.53 57.2554C39.1433 77.9607 45.2837 98.367 43.47 105.36C43.8813 125.9 13.9658 141.83 0 146.445C2.45857 151.039 5.87842 153.229 9 156.165C13.8525 161.528 16.14 160.677 20.9925 165.115C25.845 169.553 24.8925 169.425 29.745 178.665C48.4283 174.108 84.5834 141.86 80.505 115.845C81.0829 110.9 80.0856 102.326 77.5131 90.123C67.8306 66.9405 63.6829 51.1097 65.07 42.6304C69.3137 10.9675 80.4691 14.9897 87.21 6.31541C89.6438 3.32327 89.4058 2.02466 87.21 0.420411C85.0142 -1.18383 74.5736 2.11339 69.5475 5.07791Z" sodipodi:nodetypes="csccccccccczz"/><path id="shape1" transform="matrix(-1 0 0 1 104.940000348697 10.1545883993763)" fill="#d00000" fill-rule="evenodd" stroke="none" stroke-width="1" stroke-linecap="square" stroke-linejoin="miter" stroke-miterlimit="2" d="M69.5475 5.07791C64.5214 8.04243 35.3403 29.1518 37.53 57.2554C39.1433 77.9607 45.2837 98.367 43.47 105.36C43.8813 125.9 13.9658 141.83 0 146.445C2.45857 151.039 5.87842 153.229 9 156.165C13.8525 161.528 16.14 160.677 20.9925 165.115C25.845 169.553 24.8925 169.425 29.745 178.665C48.4283 174.108 84.5834 141.86 80.505 115.845C81.0829 110.9 80.0856 102.326 77.5131 90.123C67.8306 66.9405 63.6829 51.1097 65.07 42.6304C69.3137 10.9675 80.4691 14.9897 87.21 6.31541C89.6438 3.32327 89.4058 2.02466 87.21 0.420412C85.0142 -1.18383 74.5736 2.11339 69.5475 5.07791Z" sodipodi:nodetypes="csccccccccczz"/><path id="shape02" transform="matrix(-1 0 0 1 104.940000348697 10.1545897920607)" fill="#000000" fill-rule="evenodd" stroke-opacity="0" stroke="#000000" stroke-width="0" stroke-linecap="square" stroke-linejoin="bevel" d="M69.5475 5.07791C64.5214 8.04243 35.3403 29.1518 37.53 57.2554C39.1433 77.9607 45.2837 98.367 43.47 105.36C43.8813 125.9 13.9658 141.83 0 146.445C2.45857 151.039 5.87842 153.229 9 156.165C13.8525 161.528 16.14 160.677 20.9925 165.115C25.845 169.553 24.8925 169.425 29.745 178.665C48.4283 174.108 84.5834 141.86 80.505 115.845C81.0829 110.9 80.0856 102.326 77.5131 90.123C67.8306 66.9405 63.6829 51.1097 65.07 42.6304C69.3137 10.9675 80.4691 14.9897 87.21 6.31541C89.6438 3.32327 89.4058 2.02466 87.21 0.420411C85.0142 -1.18383 74.5736 2.11339 69.5475 5.07791Z" sodipodi:nodetypes="csccccccccczz"/><path id="shape2" transform="translate(0.359999977587165, 11.8799996305251)" fill="#000000" fill-rule="evenodd" stroke="none" stroke-width="1" stroke-linecap="square" stroke-linejoin="miter" stroke-miterlimit="2" d="M153.36 109.44C153.36 101.487 146.913 95.04 138.96 95.04C131.007 95.04 124.56 101.487 124.56 109.44C124.56 117.393 131.007 123.84 138.96 123.84C146.913 123.84 153.36 117.393 153.36 109.44" sodipodi:nodetypes="ccccc"/><path id="shape03" transform="translate(165.419997456153, 61.3800024657381)" fill="#000000" fill-rule="evenodd" stroke-opacity="0" stroke="#000000" stroke-width="0" stroke-linecap="square" stroke-linejoin="bevel" d="M28.8 14.4C28.8 6.447 22.353 0 14.4 0C6.447 0 0 6.447 0 14.4C0 22.353 6.447 28.8 14.4 28.8C22.353 28.8 28.8 22.353 28.8 14.4" sodipodi:nodetypes="ccccc"/><path id="shape04" transform="translate(125.280000134477, 61.5600026338337)" fill="#000000" fill-rule="evenodd" stroke-opacity="0" stroke="#000000" stroke-width="0" stroke-linecap="square" stroke-linejoin="bevel" d="M28.8 14.4C28.8 6.447 22.353 0 14.4 0C6.447 0 0 6.447 0 14.4C0 22.353 6.447 28.8 14.4 28.8C22.353 28.8 28.8 22.353 28.8 14.4" sodipodi:nodetypes="ccccc"/><path id="shape05" transform="translate(83.1600029360709, 61.2000028355484)" fill="#000000" fill-rule="evenodd" stroke-opacity="0" stroke="#000000" stroke-width="0" stroke-linecap="square" stroke-linejoin="bevel" d="M28.8 14.4C28.8 6.447 22.353 0 14.4 0C6.447 0 0 6.447 0 14.4C0 22.353 6.447 28.8 14.4 28.8C22.353 28.8 28.8 22.353 28.8 14.4" sodipodi:nodetypes="ccccc"/><path id="shape06" transform="translate(124.515001687353, 12.7800045005063)" fill="#000000" fill-rule="evenodd" stroke-opacity="0" stroke="#000000" stroke-width="0" stroke-linecap="square" stroke-linejoin="bevel" d="M28.8 14.4C28.8 6.447 22.353 0 14.4 0C6.447 0 0 6.447 0 14.4C0 22.353 6.447 28.8 14.4 28.8C22.353 28.8 28.8 22.353 28.8 14.4" sodipodi:nodetypes="ccccc"/><path id="shape3" transform="translate(45.36, 246.24)" fill="#d00000" fill-rule="evenodd" stroke="none" stroke-width="1" stroke-linecap="square" stroke-linejoin="miter" stroke-miterlimit="2" d="M0 12.24L0 90.72C5.83867 154.6 63.5635 183.752 93.6 192.96L93.6 0C62.0564 1.84668 30.599 4.25321 0 12.24Z" sodipodi:nodetypes="ccccc"/><path id="shape4" transform="matrix(-1 0 0 1 232.5149997518 246.24)" fill="#000000" fill-rule="evenodd" stroke="none" stroke-width="1" stroke-linecap="square" stroke-linejoin="miter" stroke-miterlimit="2" d="M0 12.24L0 90.72C5.83867 154.6 63.5635 183.752 93.6 192.96L93.6 0C62.0564 1.84668 30.599 4.25321 0 12.24Z" sodipodi:nodetypes="ccccc"/><path id="shape5" transform="translate(149.04, 200.16)" sodipodi:type="arc" sodipodi:rx="14.4" sodipodi:ry="14.4" sodipodi:cx="-14.4" sodipodi:cy="-3.52698278154438e-15" sodipodi:start="6.28318530717959" sodipodi:end="5.32907051820075e-15" sodipodi:open="true" d="M0 7.67386e-14C0 5.11591e-14 0 2.55795e-14 0 0" fill="none"/><path id="shape6" transform="translate(91.4400000000001, 190.66500005323)" fill="#000000" fill-rule="evenodd" stroke="none" stroke-width="0.7416" stroke-linecap="square" stroke-linejoin="miter" stroke-miterlimit="2" d="M8.64 46.89L0 8.01L0.36 1.08L1.27062 0.791236L2.16536 0.575332L3.0442 0.432291L3.90714 0.36211L4.7542 0.364791L5.58536 0.440332L6.40062 0.588736L7.2 0.81L7.94629 1.13131L8.71711 1.60547L9.50207 2.21144L10.2908 2.92816L11.0728 3.73459L11.8377 4.60968L12.5751 5.53239L13.2747 6.48168L13.926 7.43648L14.5185 8.37576L15.042 9.27847L15.486 10.1236L15.84 10.89L16.1083 11.7338L16.2149 12.5637L16.1957 13.3805L16.0869 14.1849L15.9244 14.9776L15.7442 15.7593L15.5825 16.5309L15.4752 17.293L15.4583 18.0464L15.5679 18.7918L15.84 19.53L16.024 19.7698C21.0894 19.4466 21.188 19.5182 16.3196 19.9845L16.7192 20.1748L17.215 20.3413L17.7993 20.4847L18.4645 20.6057L19.2027 20.7049L20.0064 20.7831L20.8678 20.8409L21.7792 20.8789L22.7328 20.898L23.721 20.8986L24.7362 20.8815L25.7704 20.8474L26.8162 20.797L27.8657 20.7309L28.9112 20.6497L29.9451 20.5542L30.9596 20.4451L31.9471 20.323L32.8998 20.1886L33.81 20.0425L34.67 19.8855L35.4721 19.7182L36.2086 19.5412L36.8718 19.3554L37.454 19.1612L37.9475 18.9595L38.3445 18.7508L38.6374 18.5359C33.6927 18.7121 33.753 18.6386 38.8185 18.3154L38.88 18.09L38.8331 17.588L38.7082 16.9371L38.5246 16.1698L38.3015 15.3187L38.0582 14.4164L37.8139 13.4954L37.5879 12.5883L37.3993 11.7276L37.2675 10.9459L37.2452 10.0504L37.3799 9.14513L37.6215 8.24375L37.92 7.3599L38.2251 6.50724L38.4868 5.69939L38.655 4.95L38.8108 4.34024L39.0949 3.76243L39.5075 3.21658L40.0484 2.70267L40.7177 2.22072L41.5155 1.77072L42.4416 1.35267L43.4961 0.966578L44.679 0.612434L45.9903 0.290241L47.43 0L47.61 5.68434e-14L49.0497 0.290241L50.361 0.612434L52.5984 1.35267L53.5245 1.77072L54.3223 2.22072L54.9916 2.70267L55.5325 3.21658L55.9451 3.76243L56.2292 4.34024L56.385 4.95L56.5532 5.69939L56.8149 6.50724L57.12 7.3599L57.4185 8.24375L57.6601 9.14513L57.7948 10.0504L57.7725 10.9459L57.6407 11.7276L57.4521 12.5883L57.2261 13.4954L56.9818 14.4164L56.7385 15.3187L56.5154 16.1698L56.3318 16.9371L56.2069 17.588L56.16 18.09C61.28 18.41 61.3005 18.4851 56.2215 18.3154L56.4026 18.5359L56.6955 18.7508L57.0925 18.9595L57.586 19.1612L58.1682 19.3554L58.8314 19.5412L59.5679 19.7182L60.37 19.8855L61.23 20.0425L62.1402 20.1886L63.0929 20.323L64.0804 20.4451L65.0949 20.5542L66.1288 20.6497L67.1743 20.7309L68.2238 20.797L69.2696 20.8474L70.3038 20.8815L71.319 20.8986L72.3072 20.898L73.2608 20.8789L74.1722 20.8409L75.0336 20.7831L75.8373 20.7049L76.5755 20.6057L77.2407 20.4847L77.825 20.3413L78.3208 20.1748L78.7204 19.9845L79.016 19.7698C74.0187 19.2899 74.08 19.21 79.2 19.53L79.4721 18.7918L79.5817 18.0464L79.5648 17.293L79.4575 16.5309L79.2958 15.7593L79.1156 14.9776L78.9531 14.1849L78.8443 13.3805L78.8251 12.5637L78.9317 11.7338L79.2 10.89L79.554 10.1236L79.998 9.27847L80.5215 8.37576L81.114 7.43648L81.7653 6.48168L82.4649 5.53239L83.2023 4.60968L83.9672 3.73459L84.7492 2.92816L85.5379 2.21144L86.3229 1.60547L87.0937 1.13131L87.84 0.81L88.6394 0.588736L89.4546 0.440332L90.2858 0.364791L91.1329 0.36211L91.9958 0.432291L92.8746 0.575332L93.7694 0.791236L94.68 1.08L95.04 8.01L86.4 46.89" sodipodi:nodetypes="ccccccccccccccccccccccccccccccccccccccccccccccccccccccccccccccccccccccccccccccccccccccccccccccccccccccccccccccccccccccccccccccccccccccccccccccccccccccccccccccccccccccccccccccccccccccccccc"/><path id="shape7" transform="matrix(-1 0 0 1 128.88 200.16)" sodipodi:type="arc" sodipodi:rx="14.4" sodipodi:ry="14.4" sodipodi:cx="-14.4" sodipodi:cy="-3.52698278154438e-15" sodipodi:start="6.28318530717959" sodipodi:end="5.32907051820075e-15" sodipodi:open="true" d="M0 7.67386e-14C0 5.11591e-14 0 2.55795e-14 0 0" fill="none"/><path id="shape8" transform="translate(98.64, 145.350000000239)" fill="#000000" fill-rule="evenodd" stroke="none" stroke-width="1" stroke-linecap="square" stroke-linejoin="miter" stroke-miterlimit="2" d="M35.28 0L29.52 5.76L30.24 12.24C16.8659 15.8698 7.64136 26.4156 0 39.6L0 42.48C9.5694 46.0909 11.3045 52.7344 13.68 59.13L25.92 59.13C28.0018 46.5427 33.4573 42.727 40.32 42.57C49.6531 42.4476 54.506 48.2135 55.44 59.13L66.96 59.13C68.6675 50.3854 73.4138 45.0761 80.64 42.57L80.64 39.69C73.24 25.9015 64.015 15.2718 50.4 12.24L51.12 5.04L45.36 0Z" sodipodi:nodetypes="cccccccccccccccc"/>
</svg>
