<?xml version="1.0" encoding="UTF-8" standalone="no"?>
<svg
   width="285.12pt"
   height="482pt"
   viewBox="0 0 285.12 482"
   version="1.1"
   id="svg1"
   sodipodi:docname="logo-simple-rounded-with-text-oneline.svg"
   inkscape:version="1.4.3 (0d15f75, 2025-12-25)"
   inkscape:export-filename="logo-simple-rounded-with-text-oneline.png"
   inkscape:export-xdpi="300"
   inkscape:export-ydpi="300"
   xmlns:inkscape="http://www.inkscape.org/namespaces/inkscape"
   xmlns:sodipodi="http://sodipodi.sourceforge.net/DTD/sodipodi-0.dtd"
   xmlns="http://www.w3.org/2000/svg"
   xmlns:svg="http://www.w3.org/2000/svg">
  <sodipodi:namedview
     id="namedview1"
     pagecolor="#ffffff"
     bordercolor="#000000"
     borderopacity="0.25"
     inkscape:showpageshadow="2"
     inkscape:pageopacity="0.0"
     inkscape:pagecheckerboard="0"
     inkscape:deskcolor="#d1d1d1"
     inkscape:document-units="pt"
     inkscape:zoom="1.0021604"
     inkscape:cx="94.795206"
     inkscape:cy="386.16573"
     inkscape:window-width="1728"
     inkscape:window-height="1051"
     inkscape:window-x="0"
     inkscape:window-y="38"
     inkscape:window-maximized="0"
     inkscape:current-layer="svg1" />
  <defs
     id="defs1">
    <style
       type="text/css"
       id="style1">
      @import url('https://fonts.googleapis.com/css2?family=Playfair+Display:wght@700&amp;display=swap');
    </style>
  </defs>
  <!-- Original coat of arms -->
  <g
     id="coat-of-arms">
    <path
       id="shape1"
       transform="matrix(-1,0,0,1,104.94,10.154588)"
       fill="#d00000"
       fill-rule="evenodd"
       stroke="none"
       stroke-width="1"
       stroke-linecap="square"
       stroke-linejoin="miter"
       stroke-miterlimit="2"
       d="M 69.5475,5.07791 C 64.5214,8.04243 35.3403,29.1518 37.53,57.2554 39.1433,77.9607 45.2837,98.367 43.47,105.36 43.8813,125.9 13.9658,141.83 0,146.445 c 2.45857,4.594 5.87842,6.784 9,9.72 4.8525,5.363 7.14,4.512 11.9925,8.95 4.8525,4.438 3.9,4.31 8.7525,13.55 18.6833,-4.557 54.8384,-36.805 50.76,-62.82 C 81.0829,110.9 80.0856,102.326 77.5131,90.123 67.8306,66.9405 63.6829,51.1097 65.07,42.6304 69.3137,10.9675 80.4691,14.9897 87.21,6.31541 89.6438,3.32327 89.4058,2.02466 87.21,0.420412 85.0142,-1.18383 74.5736,2.11339 69.5475,5.07791 Z"
       style="fill:#d00000;fill-opacity:1" />
    <path
       id="shape02"
       transform="matrix(-1,0,0,1,104.94,10.15459)"
       fill="#000000"
       fill-rule="evenodd"
       stroke-opacity="0"
       stroke="#000000"
       stroke-width="0"
       stroke-linecap="square"
       stroke-linejoin="bevel"
       d="M 69.5475,5.07791 C 64.5214,8.04243 35.3403,29.1518 37.53,57.2554 39.1433,77.9607 45.2837,98.367 43.47,105.36 43.8813,125.9 13.9658,141.83 0,146.445 c 2.45857,4.594 5.87842,6.784 9,9.72 4.8525,5.363 7.14,4.512 11.9925,8.95 4.8525,4.438 3.9,4.31 8.7525,13.55 18.6833,-4.557 54.8384,-36.805 50.76,-62.82 C 81.0829,110.9 80.0856,102.326 77.5131,90.123 67.8306,66.9405 63.6829,51.1097 65.07,42.6304 69.3137,10.9675 80.4691,14.9897 87.21,6.31541 89.6438,3.32327 89.4058,2.02466 87.21,0.420411 85.0142,-1.18383 74.5736,2.11339 69.5475,5.07791 Z" />
    <path
       id="shape2"
       transform="translate(0.35999998,11.88)"
       fill="#000000"
       fill-rule="evenodd"
       stroke="none"
       stroke-width="1"
       stroke-linecap="square"
       stroke-linejoin="miter"
       stroke-miterlimit="2"
       d="m 153.36,109.44 c 0,-7.953 -6.447,-14.4 -14.4,-14.4 -7.953,0 -14.4,6.447 -14.4,14.4 0,7.953 6.447,14.4 14.4,14.4 7.953,0 14.4,-6.447 14.4,-14.4" />
    <path
       id="shape03"
       transform="translate(165.42,61.380002)"
       fill="#000000"
       fill-rule="evenodd"
       stroke-opacity="0"
       stroke="#000000"
       stroke-width="0"
       stroke-linecap="square"
       stroke-linejoin="bevel"
       d="M 28.8,14.4 C 28.8,6.447 22.353,0 14.4,0 6.447,0 0,6.447 0,14.4 c 0,7.953 6.447,14.4 14.4,14.4 7.953,0 14.4,-6.447 14.4,-14.4" />
    <path
       id="shape04"
       transform="translate(125.28,61.560003)"
       fill="#000000"
       fill-rule="evenodd"
       stroke-opacity="0"
       stroke="#000000"
       stroke-width="0"
       stroke-linecap="square"
       stroke-linejoin="bevel"
       d="M 28.8,14.4 C 28.8,6.447 22.353,0 14.4,0 6.447,0 0,6.447 0,14.4 c 0,7.953 6.447,14.4 14.4,14.4 7.953,0 14.4,-6.447 14.4,-14.4" />
    <path
       id="shape05"
       transform="translate(83.160003,61.200003)"
       fill="#000000"
       fill-rule="evenodd"
       stroke-opacity="0"
       stroke="#000000"
       stroke-width="0"
       stroke-linecap="square"
       stroke-linejoin="bevel"
       d="M 28.8,14.4 C 28.8,6.447 22.353,0 14.4,0 6.447,0 0,6.447 0,14.4 c 0,7.953 6.447,14.4 14.4,14.4 7.953,0 14.4,-6.447 14.4,-14.4" />
    <path
       id="shape06"
       transform="translate(124.515,12.780005)"
       fill="#000000"
       fill-rule="evenodd"
       stroke-opacity="0"
       stroke="#000000"
       stroke-width="0"
       stroke-linecap="square"
       stroke-linejoin="bevel"
       d="M 28.8,14.4 C 28.8,6.447 22.353,0 14.4,0 6.447,0 0,6.447 0,14.4 c 0,7.953 6.447,14.4 14.4,14.4 7.953,0 14.4,-6.447 14.4,-14.4" />
    <path
       d="m 138.94893,246.25195 c -31.52852,1.84634 -63.008835,4.24553 -93.593285,12.22852 v 78.479 c 5.83576,63.84812 54.680605,92.84132 93.595965,92.85712 z"
       style="display:inline;fill:#d00000;fill-rule:evenodd;stroke-linecap:square;stroke-miterlimit:2"
       id="path1" />
    <path
       id="shape5"
       transform="translate(149.04,200.16)"
       d="M 0,0 C 0,0 0,0 0,0"
       fill="none" />
    <path
       id="shape6"
       fill="#000000"
       fill-rule="evenodd"
       stroke="none"
       stroke-width="0.7416"
       stroke-linecap="square"
       stroke-linejoin="miter"
       stroke-miterlimit="2"
       d="M 100.08,237.555 C 97.222661,224.52286 94.213375,211.50341 91.450996,198.46333 L 91.8,191.745 c 3.315303,-1.27584 7.481426,-0.96677 9.9308,1.84816 2.45063,2.60096 4.79253,5.56195 5.8445,9.01587 0.55693,2.56297 -1.65155,5.35309 -0.12438,7.71132 1.96299,1.42851 4.62548,1.07537 6.93383,1.24278 5.03145,-0.10595 10.20911,-0.2727 15.00275,-1.93863 1.62747,-0.62526 0.55245,-2.44609 0.354,-3.6408 -0.73018,-2.57809 -1.29835,-3.21227 -1.61146,-5.79019 0.31747,-2.66291 1.94192,-6.21255 3.87437,-7.19741 2.17225,-1.32143 4.74954,-2.06851 7.25336,-2.28921 3.01202,0.30164 6.44547,1.22256 8.22085,3.91075 0.8955,1.96987 1.55841,4.12673 1.7509,6.30965 -0.0119,2.6518 -1.48506,5.1307 -1.49691,7.74086 0.30307,1.33895 2.17599,1.30639 3.27529,1.71505 5.71697,1.07649 11.63851,1.59278 17.42467,0.81163 1.7103,0.0164 2.86193,-1.61733 2.57223,-3.23683 -0.43155,-2.48733 -1.42439,-5.24399 0.18635,-7.54467 1.9358,-3.36985 4.21224,-6.91474 7.73191,-8.78465 2.29261,-0.93429 4.90349,-0.69663 7.19694,0.11632 0.003,3.14319 0.8055,6.35327 -0.19176,9.4129 -2.69608,12.13236 -5.39216,24.26473 -8.08824,36.3971" />
    <path
       id="shape7"
       transform="matrix(-1,0,0,1,128.88,200.16)"
       d="M 0,0 C 0,0 0,0 0,0"
       fill="none" />
    <path
       id="shape8"
       transform="translate(98.64,145.35)"
       fill="#000000"
       fill-rule="evenodd"
       stroke="none"
       stroke-width="1"
       stroke-linecap="square"
       stroke-linejoin="miter"
       stroke-miterlimit="2"
       d="m 35.28,0 -5.76,5.76 0.72,6.48 C 16.8659,15.8698 7.64136,26.4156 0,39.6 v 2.88 c 9.5694,3.6109 11.3045,10.2544 13.68,16.65 h 12.24 c 2.0818,-12.5873 7.5373,-16.403 14.4,-16.56 9.3331,-0.1224 14.186,5.6435 15.12,16.56 H 66.96 C 68.6675,50.3854 73.4138,45.0761 80.64,42.57 V 39.69 C 73.24,25.9015 64.015,15.2718 50.4,12.24 L 51.12,5.04 45.36,0 Z" />
    <path
       id="path5"
       d="m 138.94893,246.25195 c -31.52852,1.84634 -63.008835,4.24553 -93.593285,12.22852 v 78.479 c 5.83576,63.84812 54.680605,92.84132 93.595965,92.85712 z"
       style="display:inline;fill:#000000;fill-opacity:1;fill-rule:evenodd;stroke-linecap:square;stroke-miterlimit:2"
       transform="matrix(-1,0,0,1,277.90322,0)" />
    <path
       transform="translate(172.71006,10.15459)"
       id="path2"
       d="M 69.5475,5.07791 C 64.5214,8.04243 35.3403,29.1518 37.53,57.2554 39.1433,77.9607 45.2837,98.367 43.47,105.36 43.8813,125.9 13.9658,141.83 0,146.445 c 2.45857,4.594 5.87842,6.784 9,9.72 4.8525,5.363 7.14,4.512 11.9925,8.95 4.8525,4.438 3.9,4.31 8.7525,13.55 18.6833,-4.557 54.8384,-36.805 50.76,-62.82 C 81.0829,110.9 80.0856,102.326 77.5131,90.123 67.8306,66.9405 63.6829,51.1097 65.07,42.6304 69.3137,10.9675 80.4691,14.9897 87.21,6.31541 89.6438,3.32327 89.4058,2.02466 87.21,0.420411 85.0142,-1.18383 74.5736,2.11339 69.5475,5.07791 Z"
       fill="#000000"
       fill-rule="evenodd"
       stroke="#000000"
       stroke-width="0"
       stroke-linecap="square"
       stroke-linejoin="bevel"
       stroke-opacity="0"
       style="display:inline;fill:#d00000;fill-opacity:1" />
  </g>
  <!-- Decorative line -->
  <line
     x1="68.258087"
     y1="444.76132"
     x2="209.37808"
     y2="444.76132"
     stroke="#d00000"
     stroke-width="1.5"
     stroke-linecap="round"
     id="line1" />
  <!-- Text: Kokořovský dvůr on one line -->
  <text
     x="140.31485"
     y="471.04526"
     text-anchor="middle"
     font-family="'Playfair Display', 'Palatino Linotype', 'Book Antiqua', Palatino, 'Times New Roman', serif"
     font-weight="700"
     font-size="24px"
     letter-spacing="1.5"
     fill="#000000"
     id="text1">Kokořovský dvůr</text>
</svg>
