<?xml version="1.0" encoding="UTF-8" standalone="no"?>
<svg
   width="285.12pt"
   height="530pt"
   viewBox="0 0 285.12 530"
   version="1.1"
   id="svg1"
   xmlns:inkscape="http://www.inkscape.org/namespaces/inkscape"
   xmlns:sodipodi="http://sodipodi.sourceforge.net/DTD/sodipodi-0.dtd"
   xmlns="http://www.w3.org/2000/svg"
   xmlns:svg="http://www.w3.org/2000/svg">
  <defs id="defs1">
    <style type="text/css">
      @import url('https://fonts.googleapis.com/css2?family=Playfair+Display:wght@700&amp;display=swap');
    </style>
  </defs>

  <!-- Original coat of arms -->
  <g id="coat-of-arms">
    <path
       id="shape1"
       transform="matrix(-1 0 0 1 104.940000348697 10.1545883993763)"
       fill="#d00000"
       fill-rule="evenodd"
       stroke="none"
       stroke-width="1"
       stroke-linecap="square"
       stroke-linejoin="miter"
       stroke-miterlimit="2"
       d="M69.5475 5.07791C64.5214 8.04243 35.3403 29.1518 37.53 57.2554C39.1433 77.9607 45.2837 98.367 43.47 105.36C43.8813 125.9 13.9658 141.83 0 146.445C2.45857 151.039 5.87842 153.229 9 156.165C13.8525 161.528 16.14 160.677 20.9925 165.115C25.845 169.553 24.8925 169.425 29.745 178.665C48.4283 174.108 84.5834 141.86 80.505 115.845C81.0829 110.9 80.0856 102.326 77.5131 90.123C67.8306 66.9405 63.6829 51.1097 65.07 42.6304C69.3137 10.9675 80.4691 14.9897 87.21 6.31541C89.6438 3.32327 89.4058 2.02466 87.21 0.420412C85.0142 -1.18383 74.5736 2.11339 69.5475 5.07791Z"
       style="fill:#d00000;fill-opacity:1" />
    <path
       id="shape02"
       transform="matrix(-1,0,0,1,104.94,10.15459)"
       fill="#000000"
       fill-rule="evenodd"
       stroke-opacity="0"
       stroke="#000000"
       stroke-width="0"
       stroke-linecap="square"
       stroke-linejoin="bevel"
       d="M 69.5475,5.07791 C 64.5214,8.04243 35.3403,29.1518 37.53,57.2554 39.1433,77.9607 45.2837,98.367 43.47,105.36 43.8813,125.9 13.9658,141.83 0,146.445 c 2.45857,4.594 5.87842,6.784 9,9.72 4.8525,5.363 7.14,4.512 11.9925,8.95 4.8525,4.438 3.9,4.31 8.7525,13.55 18.6833,-4.557 54.8384,-36.805 50.76,-62.82 C 81.0829,110.9 80.0856,102.326 77.5131,90.123 67.8306,66.9405 63.6829,51.1097 65.07,42.6304 69.3137,10.9675 80.4691,14.9897 87.21,6.31541 89.6438,3.32327 89.4058,2.02466 87.21,0.420411 85.0142,-1.18383 74.5736,2.11339 69.5475,5.07791 Z" />
    <path
       id="shape2"
       transform="translate(0.359999977587165, 11.8799996305251)"
       fill="#000000"
       fill-rule="evenodd"
       stroke="none"
       stroke-width="1"
       stroke-linecap="square"
       stroke-linejoin="miter"
       stroke-miterlimit="2"
       d="M153.36 109.44C153.36 101.487 146.913 95.04 138.96 95.04C131.007 95.04 124.56 101.487 124.56 109.44C124.56 117.393 131.007 123.84 138.96 123.84C146.913 123.84 153.36 117.393 153.36 109.44" />
    <path
       id="shape03"
       transform="translate(165.419997456153, 61.3800024657381)"
       fill="#000000"
       fill-rule="evenodd"
       stroke-opacity="0"
       stroke="#000000"
       stroke-width="0"
       stroke-linecap="square"
       stroke-linejoin="bevel"
       d="M28.8 14.4C28.8 6.447 22.353 0 14.4 0C6.447 0 0 6.447 0 14.4C0 22.353 6.447 28.8 14.4 28.8C22.353 28.8 28.8 22.353 28.8 14.4" />
    <path
       id="shape04"
       transform="translate(125.280000134477, 61.5600026338337)"
       fill="#000000"
       fill-rule="evenodd"
       stroke-opacity="0"
       stroke="#000000"
       stroke-width="0"
       stroke-linecap="square"
       stroke-linejoin="bevel"
       d="M28.8 14.4C28.8 6.447 22.353 0 14.4 0C6.447 0 0 6.447 0 14.4C0 22.353 6.447 28.8 14.4 28.8C22.353 28.8 28.8 22.353 28.8 14.4" />
    <path
       id="shape05"
       transform="translate(83.1600029360709, 61.2000028355484)"
       fill="#000000"
       fill-rule="evenodd"
       stroke-opacity="0"
       stroke="#000000"
       stroke-width="0"
       stroke-linecap="square"
       stroke-linejoin="bevel"
       d="M28.8 14.4C28.8 6.447 22.353 0 14.4 0C6.447 0 0 6.447 0 14.4C0 22.353 6.447 28.8 14.4 28.8C22.353 28.8 28.8 22.353 28.8 14.4" />
    <path
       id="shape06"
       transform="translate(124.515,12.780005)"
       fill="#000000"
       fill-rule="evenodd"
       stroke-opacity="0"
       stroke="#000000"
       stroke-width="0"
       stroke-linecap="square"
       stroke-linejoin="bevel"
       d="M 28.8,14.4 C 28.8,6.447 22.353,0 14.4,0 6.447,0 0,6.447 0,14.4 c 0,7.953 6.447,14.4 14.4,14.4 7.953,0 14.4,-6.447 14.4,-14.4" />
    <path
       d="m 138.94893,246.25195 c -31.52852,1.84634 -63.008835,4.24553 -93.593285,12.22852 v 78.479 c 5.83576,63.84812 54.680605,92.84132 93.595965,92.85712 z"
       style="display:inline;fill:#d00000;fill-rule:evenodd;stroke-linecap:square;stroke-miterlimit:2"
       id="path1" />
    <path
       id="shape5"
       transform="translate(149.04, 200.16)"
       d="M0 7.67386e-14C0 5.11591e-14 0 2.55795e-14 0 0"
       fill="none" />
    <path
       id="shape6"
       fill="#000000"
       fill-rule="evenodd"
       stroke="none"
       stroke-width="0.7416"
       stroke-linecap="square"
       stroke-linejoin="miter"
       stroke-miterlimit="2"
       d="M 100.08,237.555 C 97.222661,224.52286 94.213375,211.50341 91.450996,198.46333 L 91.8,191.745 c 3.315303,-1.27584 7.481426,-0.96677 9.9308,1.84816 2.45063,2.60096 4.79253,5.56195 5.8445,9.01587 0.55693,2.56297 -1.65155,5.35309 -0.12438,7.71132 1.96299,1.42851 4.62548,1.07537 6.93383,1.24278 5.03145,-0.10595 10.20911,-0.2727 15.00275,-1.93863 1.62747,-0.62526 0.55245,-2.44609 0.354,-3.6408 -0.73018,-2.57809 -1.29835,-3.21227 -1.61146,-5.79019 0.31747,-2.66291 1.94192,-6.21255 3.87437,-7.19741 2.17225,-1.32143 4.74954,-2.06851 7.25336,-2.28921 3.01202,0.30164 6.44547,1.22256 8.22085,3.91075 0.8955,1.96987 1.55841,4.12673 1.7509,6.30965 -0.0119,2.6518 -1.48506,5.1307 -1.49691,7.74086 0.30307,1.33895 2.17599,1.30639 3.27529,1.71505 5.71697,1.07649 11.63851,1.59278 17.42467,0.81163 1.7103,0.0164 2.86193,-1.61733 2.57223,-3.23683 -0.43155,-2.48733 -1.42439,-5.24399 0.18635,-7.54467 1.9358,-3.36985 4.21224,-6.91474 7.73191,-8.78465 2.29261,-0.93429 4.90349,-0.69663 7.19694,0.11632 0.003,3.14319 0.8055,6.35327 -0.19176,9.4129 -2.69608,12.13236 -5.39216,24.26473 -8.08824,36.3971" />
    <path
       id="shape7"
       transform="matrix(-1 0 0 1 128.88 200.16)"
       d="M0 7.67386e-14C0 5.11591e-14 0 2.55795e-14 0 0"
       fill="none" />
    <path
       id="shape8"
       transform="translate(98.64, 145.350000000239)"
       fill="#000000"
       fill-rule="evenodd"
       stroke="none"
       stroke-width="1"
       stroke-linecap="square"
       stroke-linejoin="miter"
       stroke-miterlimit="2"
       d="M35.28 0L29.52 5.76L30.24 12.24C16.8659 15.8698 7.64136 26.4156 0 39.6L0 42.48C9.5694 46.0909 11.3045 52.7344 13.68 59.13L25.92 59.13C28.0018 46.5427 33.4573 42.727 40.32 42.57C49.6531 42.4476 54.506 48.2135 55.44 59.13L66.96 59.13C68.6675 50.3854 73.4138 45.0761 80.64 42.57L80.64 39.69C73.24 25.9015 64.015 15.2718 50.4 12.24L51.12 5.04L45.36 0Z" />
    <path
       id="path5"
       d="m 138.94893,246.25195 c -31.52852,1.84634 -63.008835,4.24553 -93.593285,12.22852 v 78.479 c 5.83576,63.84812 54.680605,92.84132 93.595965,92.85712 z"
       style="display:inline;fill:#000000;fill-rule:evenodd;stroke-linecap:square;stroke-miterlimit:2;fill-opacity:1"
       transform="matrix(-1,0,0,1,277.90322,0)" />
    <path
       transform="translate(172.71006,10.15459)"
       id="path2"
       d="M 69.5475,5.07791 C 64.5214,8.04243 35.3403,29.1518 37.53,57.2554 39.1433,77.9607 45.2837,98.367 43.47,105.36 43.8813,125.9 13.9658,141.83 0,146.445 c 2.45857,4.594 5.87842,6.784 9,9.72 4.8525,5.363 7.14,4.512 11.9925,8.95 4.8525,4.438 3.9,4.31 8.7525,13.55 18.6833,-4.557 54.8384,-36.805 50.76,-62.82 C 81.0829,110.9 80.0856,102.326 77.5131,90.123 67.8306,66.9405 63.6829,51.1097 65.07,42.6304 69.3137,10.9675 80.4691,14.9897 87.21,6.31541 89.6438,3.32327 89.4058,2.02466 87.21,0.420411 85.0142,-1.18383 74.5736,2.11339 69.5475,5.07791 Z"
       fill="#000000"
       fill-rule="evenodd"
       stroke="#000000"
       stroke-width="0"
       stroke-linecap="square"
       stroke-linejoin="bevel"
       stroke-opacity="0"
       style="display:inline;fill:#d00000;fill-opacity:1" />
  </g>

  <!-- Decorative line -->
  <line x1="72" y1="450" x2="213.12" y2="450" stroke="#d00000" stroke-width="1.5" stroke-linecap="round" />

  <!-- Text: Kokořovský dvůr -->
  <text
     x="142.56"
     y="488"
     text-anchor="middle"
     font-family="'Playfair Display', 'Palatino Linotype', 'Book Antiqua', Palatino, 'Times New Roman', serif"
     font-weight="700"
     font-size="28"
     letter-spacing="2"
     fill="#000000">Kokořovský</text>
  <text
     x="142.56"
     y="518"
     text-anchor="middle"
     font-family="'Playfair Display', 'Palatino Linotype', 'Book Antiqua', Palatino, 'Times New Roman', serif"
     font-weight="700"
     font-size="28"
     letter-spacing="4"
     fill="#000000">dvůr</text>
</svg>
