<?xml version="1.0" encoding="UTF-8" standalone="no"?>
<!-- Created using Krita: https://krita.org -->

<svg
   width="285.12pt"
   height="459.36pt"
   viewBox="0 0 285.12 459.36"
   version="1.1"
   id="svg1"
   sodipodi:docname="logo-simple-rounded.svg"
   inkscape:version="1.4.2 (ebf0e940, 2025-05-08)"
   xmlns:inkscape="http://www.inkscape.org/namespaces/inkscape"
   xmlns:sodipodi="http://sodipodi.sourceforge.net/DTD/sodipodi-0.dtd"
   xmlns="http://www.w3.org/2000/svg"
   xmlns:svg="http://www.w3.org/2000/svg">
  <sodipodi:namedview
     id="namedview1"
     pagecolor="#ffffff"
     bordercolor="#000000"
     borderopacity="0.25"
     inkscape:showpageshadow="2"
     inkscape:pageopacity="0.0"
     inkscape:pagecheckerboard="0"
     inkscape:deskcolor="#d1d1d1"
     inkscape:document-units="pt"
     inkscape:zoom="3.328456"
     inkscape:cx="198.89102"
     inkscape:cy="171.25057"
     inkscape:window-width="1688"
     inkscape:window-height="1837"
     inkscape:window-x="0"
     inkscape:window-y="25"
     inkscape:window-maximized="0"
     inkscape:current-layer="svg1" />
  <defs
     id="defs1">
    <inkscape:path-effect
       effect="mirror_symmetry"
       start_point="-0.225329,34.454343"
       end_point="28.574671,34.454343"
       center_point="14.174671,34.454343"
       id="path-effect25"
       is_visible="true"
       lpeversion="1.2"
       lpesatellites="#path25"
       mode="free"
       discard_orig_path="false"
       fuse_paths="false"
       oposite_fuse="false"
       split_items="true"
       split_open="false"
       link_styles="false" />
    <inkscape:path-effect
       effect="mirror_symmetry"
       start_point="-0.450659,-4.5276949"
       end_point="28.349341,-4.5276949"
       center_point="13.949341,-4.5276949"
       id="path-effect23"
       is_visible="true"
       lpeversion="1.2"
       lpesatellites="#path23"
       mode="free"
       discard_orig_path="false"
       fuse_paths="false"
       oposite_fuse="false"
       split_items="true"
       split_open="false"
       link_styles="false" />
    <inkscape:path-effect
       effect="mirror_symmetry"
       start_point="-7.4780822,1.351978"
       end_point="-7.4780822,30.151978"
       center_point="-7.4780822,15.751978"
       id="path-effect21"
       is_visible="true"
       lpeversion="1.2"
       lpesatellites="#path21"
       mode="free"
       discard_orig_path="false"
       fuse_paths="false"
       oposite_fuse="false"
       split_items="true"
       split_open="false"
       link_styles="false" />
    <inkscape:path-effect
       effect="mirror_symmetry"
       start_point="34.658572,0.450659"
       end_point="34.658572,29.250659"
       center_point="34.658572,14.850659"
       id="path-effect19"
       is_visible="true"
       lpeversion="1.2"
       lpesatellites="#path19"
       mode="free"
       discard_orig_path="false"
       fuse_paths="false"
       oposite_fuse="false"
       split_items="true"
       split_open="false"
       link_styles="false" />
    <inkscape:path-effect
       effect="mirror_symmetry"
       start_point="-6.4606651,-0.450659"
       end_point="-6.4606651,29.549341"
       center_point="-6.4606651,14.549341"
       id="path-effect15"
       is_visible="true"
       lpeversion="1.2"
       lpesatellites=""
       mode="free"
       discard_orig_path="false"
       fuse_paths="false"
       oposite_fuse="false"
       split_items="false"
       split_open="false"
       link_styles="false" />
    <inkscape:path-effect
       effect="mirror_symmetry"
       start_point="-5,0"
       end_point="35,30"
       center_point="35,15"
       id="path-effect13"
       is_visible="false"
       lpeversion="1.2"
       lpesatellites=""
       mode="free"
       discard_orig_path="false"
       fuse_paths="false"
       oposite_fuse="false"
       split_items="false"
       split_open="false"
       link_styles="false" />
    <inkscape:path-effect
       effect="mirror_symmetry"
       start_point="-6.7809919,33.757254"
       end_point="-6.7809919,4.957254"
       center_point="-6.7809919,19.357254"
       id="path-effect11"
       is_visible="true"
       lpeversion="1.2"
       lpesatellites=""
       mode="free"
       discard_orig_path="false"
       fuse_paths="false"
       oposite_fuse="false"
       split_items="false"
       split_open="false"
       link_styles="false" />
    <inkscape:path-effect
       effect="mirror_symmetry"
       start_point="34.88,1.351978"
       end_point="34.883902,30.151978"
       center_point="34.883902,15.751978"
       id="path-effect9"
       is_visible="false"
       lpeversion="1.2"
       lpesatellites=""
       mode="free"
       discard_orig_path="false"
       fuse_paths="false"
       oposite_fuse="false"
       split_items="false"
       split_open="false"
       link_styles="false" />
    <inkscape:path-effect
       effect="mirror_symmetry"
       start_point="35,0"
       end_point="35,30"
       center_point="35,15"
       id="path-effect6"
       is_visible="false"
       lpeversion="1.2"
       lpesatellites=""
       mode="free"
       discard_orig_path="false"
       fuse_paths="false"
       oposite_fuse="false"
       split_items="false"
       split_open="false"
       link_styles="false" />
    <inkscape:path-effect
       effect="mirror_symmetry"
       start_point="-33.885031,5.8933"
       end_point="-33.885031,184.55831"
       center_point="-33.885031,95.225805"
       id="path-effect2"
       is_visible="true"
       lpeversion="1.2"
       lpesatellites="#path2"
       mode="free"
       discard_orig_path="false"
       fuse_paths="false"
       oposite_fuse="false"
       split_items="true"
       split_open="false"
       link_styles="false" />
    <inkscape:path-effect
       effect="mirror_symmetry"
       start_point="138.95161,246.25195"
       end_point="138.95161,429.81659"
       center_point="138.95161,338.03427"
       id="path-effect5"
       is_visible="true"
       lpeversion="1.2"
       lpesatellites="#path5"
       mode="free"
       discard_orig_path="false"
       fuse_paths="false"
       oposite_fuse="false"
       split_items="true"
       split_open="false"
       link_styles="false" />
    <inkscape:path-effect
       effect="mirror_symmetry"
       start_point="138.95627,246.24316"
       end_point="138.95627,429.8166"
       center_point="138.95627,338.02988"
       id="path-effect4"
       is_visible="true"
       lpeversion="1.2"
       lpesatellites=""
       mode="free"
       discard_orig_path="true"
       fuse_paths="false"
       oposite_fuse="false"
       split_items="false"
       split_open="false"
       link_styles="false" />
    <inkscape:path-effect
       effect="mirror_symmetry"
       start_point="138.95627,246.24316"
       end_point="138.95627,429.81659"
       center_point="138.95627,338.02988"
       id="path-effect3"
       is_visible="true"
       lpeversion="1.2"
       lpesatellites=""
       mode="free"
       discard_orig_path="false"
       fuse_paths="false"
       oposite_fuse="false"
       split_items="false"
       split_open="false"
       link_styles="false" />
  </defs>
  <path
     id="shape1"
     transform="matrix(-1 0 0 1 104.940000348697 10.1545883993763)"
     fill="#d00000"
     fill-rule="evenodd"
     stroke="none"
     stroke-width="1"
     stroke-linecap="square"
     stroke-linejoin="miter"
     stroke-miterlimit="2"
     d="M69.5475 5.07791C64.5214 8.04243 35.3403 29.1518 37.53 57.2554C39.1433 77.9607 45.2837 98.367 43.47 105.36C43.8813 125.9 13.9658 141.83 0 146.445C2.45857 151.039 5.87842 153.229 9 156.165C13.8525 161.528 16.14 160.677 20.9925 165.115C25.845 169.553 24.8925 169.425 29.745 178.665C48.4283 174.108 84.5834 141.86 80.505 115.845C81.0829 110.9 80.0856 102.326 77.5131 90.123C67.8306 66.9405 63.6829 51.1097 65.07 42.6304C69.3137 10.9675 80.4691 14.9897 87.21 6.31541C89.6438 3.32327 89.4058 2.02466 87.21 0.420412C85.0142 -1.18383 74.5736 2.11339 69.5475 5.07791Z"
     sodipodi:nodetypes="csccccccccczz"
     style="fill:#d00000;fill-opacity:1" />
  <path
     id="shape02"
     transform="matrix(-1,0,0,1,104.94,10.15459)"
     fill="#000000"
     fill-rule="evenodd"
     stroke-opacity="0"
     stroke="#000000"
     stroke-width="0"
     stroke-linecap="square"
     stroke-linejoin="bevel"
     d="M 69.5475,5.07791 C 64.5214,8.04243 35.3403,29.1518 37.53,57.2554 39.1433,77.9607 45.2837,98.367 43.47,105.36 43.8813,125.9 13.9658,141.83 0,146.445 c 2.45857,4.594 5.87842,6.784 9,9.72 4.8525,5.363 7.14,4.512 11.9925,8.95 4.8525,4.438 3.9,4.31 8.7525,13.55 18.6833,-4.557 54.8384,-36.805 50.76,-62.82 C 81.0829,110.9 80.0856,102.326 77.5131,90.123 67.8306,66.9405 63.6829,51.1097 65.07,42.6304 69.3137,10.9675 80.4691,14.9897 87.21,6.31541 89.6438,3.32327 89.4058,2.02466 87.21,0.420411 85.0142,-1.18383 74.5736,2.11339 69.5475,5.07791 Z"
     sodipodi:nodetypes="csccccccccczz"
     inkscape:path-effect="#path-effect2"
     inkscape:original-d="M 69.5475,5.07791 C 64.5214,8.04243 35.3403,29.1518 37.53,57.2554 39.1433,77.9607 45.2837,98.367 43.47,105.36 43.8813,125.9 13.9658,141.83 0,146.445 c 2.45857,4.594 5.87842,6.784 9,9.72 4.8525,5.363 7.14,4.512 11.9925,8.95 4.8525,4.438 3.9,4.31 8.7525,13.55 18.6833,-4.557 54.8384,-36.805 50.76,-62.82 C 81.0829,110.9 80.0856,102.326 77.5131,90.123 67.8306,66.9405 63.6829,51.1097 65.07,42.6304 69.3137,10.9675 80.4691,14.9897 87.21,6.31541 89.6438,3.32327 89.4058,2.02466 87.21,0.420411 85.0142,-1.18383 74.5736,2.11339 69.5475,5.07791 Z" />
  <path
     id="shape04"
     transform="translate(125.28,61.560003)"
     fill="#000000"
     fill-rule="evenodd"
     stroke-opacity="0"
     stroke="#000000"
     stroke-width="0"
     stroke-linecap="square"
     stroke-linejoin="bevel"
     d="M 28.8,14.4 C 28.8,6.447 22.353,0 14.4,0 6.447,0 0,6.447 0,14.4 c 0,7.953 6.447,14.4 14.4,14.4 7.953,0 14.4,-6.447 14.4,-14.4"
     sodipodi:nodetypes="ccccc"
     inkscape:path-effect="#path-effect19;#path-effect21;#path-effect23;#path-effect25"
     inkscape:original-d="M 28.8,14.4 C 28.8,6.447 22.353,0 14.4,0 6.447,0 0,6.447 0,14.4 c 0,7.953 6.447,14.4 14.4,14.4 7.953,0 14.4,-6.447 14.4,-14.4" />
  <path
     d="m 138.94893,246.25195 c -31.52852,1.84634 -63.008835,4.24553 -93.593285,12.22852 v 78.479 c 5.83576,63.84812 54.680605,92.84132 93.595965,92.85712 z"
     style="display:inline;fill:#d00000;fill-rule:evenodd;stroke-linecap:square;stroke-miterlimit:2"
     id="path1"
     sodipodi:nodetypes="ccccc"
     inkscape:label="red left shield"
     inkscape:path-effect="#path-effect5"
     inkscape:original-d="m 138.94893,246.25195 c -31.52852,1.84634 -63.008835,4.24553 -93.593285,12.22852 v 78.479 c 5.83576,63.84812 54.680605,92.84132 93.595965,92.85712 z" />
  <path
     id="shape5"
     transform="translate(149.04, 200.16)"
     sodipodi:type="arc"
     sodipodi:rx="14.4"
     sodipodi:ry="14.4"
     sodipodi:cx="-14.4"
     sodipodi:cy="-3.52698278154438e-15"
     sodipodi:start="6.28318530717959"
     sodipodi:end="5.32907051820075e-15"
     sodipodi:open="true"
     d="M0 7.67386e-14C0 5.11591e-14 0 2.55795e-14 0 0"
     fill="none" />
  <path
     id="shape6"
     fill="#000000"
     fill-rule="evenodd"
     stroke="none"
     stroke-width="0.7416"
     stroke-linecap="square"
     stroke-linejoin="miter"
     stroke-miterlimit="2"
     d="M 100.08,237.555 C 97.222661,224.52286 94.213375,211.50341 91.450996,198.46333 L 91.8,191.745 c 3.315303,-1.27584 7.481426,-0.96677 9.9308,1.84816 2.45063,2.60096 4.79253,5.56195 5.8445,9.01587 0.55693,2.56297 -1.65155,5.35309 -0.12438,7.71132 1.96299,1.42851 4.62548,1.07537 6.93383,1.24278 5.03145,-0.10595 10.20911,-0.2727 15.00275,-1.93863 1.62747,-0.62526 0.55245,-2.44609 0.354,-3.6408 -0.73018,-2.57809 -1.29835,-3.21227 -1.61146,-5.79019 0.31747,-2.66291 1.94192,-6.21255 3.87437,-7.19741 2.17225,-1.32143 4.74954,-2.06851 7.25336,-2.28921 3.01202,0.30164 6.44547,1.22256 8.22085,3.91075 0.8955,1.96987 1.55841,4.12673 1.7509,6.30965 -0.0119,2.6518 -1.48506,5.1307 -1.49691,7.74086 0.30307,1.33895 2.17599,1.30639 3.27529,1.71505 5.71697,1.07649 11.63851,1.59278 17.42467,0.81163 1.7103,0.0164 2.86193,-1.61733 2.57223,-3.23683 -0.43155,-2.48733 -1.42439,-5.24399 0.18635,-7.54467 1.9358,-3.36985 4.21224,-6.91474 7.73191,-8.78465 2.29261,-0.93429 4.90349,-0.69663 7.19694,0.11632 0.003,3.14319 0.8055,6.35327 -0.19176,9.4129 -2.69608,12.13236 -5.39216,24.26473 -8.08824,36.3971"
     sodipodi:nodetypes="ccccccccccccccccccccccc" />
  <path
     id="shape7"
     transform="matrix(-1 0 0 1 128.88 200.16)"
     sodipodi:type="arc"
     sodipodi:rx="14.4"
     sodipodi:ry="14.4"
     sodipodi:cx="-14.4"
     sodipodi:cy="-3.52698278154438e-15"
     sodipodi:start="6.28318530717959"
     sodipodi:end="5.32907051820075e-15"
     sodipodi:open="true"
     d="M0 7.67386e-14C0 5.11591e-14 0 2.55795e-14 0 0"
     fill="none" />
  <path
     id="shape8"
     transform="translate(98.64, 145.350000000239)"
     fill="#000000"
     fill-rule="evenodd"
     stroke="none"
     stroke-width="1"
     stroke-linecap="square"
     stroke-linejoin="miter"
     stroke-miterlimit="2"
     d="M35.28 0L29.52 5.76L30.24 12.24C16.8659 15.8698 7.64136 26.4156 0 39.6L0 42.48C9.5694 46.0909 11.3045 52.7344 13.68 59.13L25.92 59.13C28.0018 46.5427 33.4573 42.727 40.32 42.57C49.6531 42.4476 54.506 48.2135 55.44 59.13L66.96 59.13C68.6675 50.3854 73.4138 45.0761 80.64 42.57L80.64 39.69C73.24 25.9015 64.015 15.2718 50.4 12.24L51.12 5.04L45.36 0Z"
     sodipodi:nodetypes="cccccccccccccccc" />
  <path
     id="path5"
     d="m 138.94893,246.25195 c -31.52852,1.84634 -63.008835,4.24553 -93.593285,12.22852 v 78.479 c 5.83576,63.84812 54.680605,92.84132 93.595965,92.85712 z"
     style="display:inline;fill:#000000;fill-rule:evenodd;stroke-linecap:square;stroke-miterlimit:2;fill-opacity:1"
     transform="matrix(-1,0,0,1,277.90322,0)" />
  <path
     transform="translate(172.71006,10.15459)"
     id="path2"
     d="M 69.5475,5.07791 C 64.5214,8.04243 35.3403,29.1518 37.53,57.2554 39.1433,77.9607 45.2837,98.367 43.47,105.36 43.8813,125.9 13.9658,141.83 0,146.445 c 2.45857,4.594 5.87842,6.784 9,9.72 4.8525,5.363 7.14,4.512 11.9925,8.95 4.8525,4.438 3.9,4.31 8.7525,13.55 18.6833,-4.557 54.8384,-36.805 50.76,-62.82 C 81.0829,110.9 80.0856,102.326 77.5131,90.123 67.8306,66.9405 63.6829,51.1097 65.07,42.6304 69.3137,10.9675 80.4691,14.9897 87.21,6.31541 89.6438,3.32327 89.4058,2.02466 87.21,0.420411 85.0142,-1.18383 74.5736,2.11339 69.5475,5.07791 Z"
     fill="#000000"
     fill-rule="evenodd"
     stroke="#000000"
     stroke-width="0"
     stroke-linecap="square"
     stroke-linejoin="bevel"
     stroke-opacity="0"
     style="display:inline;fill:#d00000;fill-opacity:1" />
  <path
     transform="matrix(-1,0,0,1,194.59714,61.560003)"
     id="path19"
     d="M 28.8,14.4 C 28.8,6.447 22.353,0 14.4,0 6.447,0 0,6.447 0,14.4 c 0,7.953 6.447,14.4 14.4,14.4 7.953,0 14.4,-6.447 14.4,-14.4"
     fill="#000000"
     fill-rule="evenodd"
     stroke="#000000"
     stroke-width="0"
     stroke-linecap="square"
     stroke-linejoin="bevel"
     stroke-opacity="0" />
  <path
     transform="matrix(-1,0,0,1,110.32384,61.560003)"
     id="path21"
     d="M 28.8,14.4 C 28.8,6.447 22.353,0 14.4,0 6.447,0 0,6.447 0,14.4 c 0,7.953 6.447,14.4 14.4,14.4 7.953,0 14.4,-6.447 14.4,-14.4"
     fill="#000000"
     fill-rule="evenodd"
     stroke="#000000"
     stroke-width="0"
     stroke-linecap="square"
     stroke-linejoin="bevel"
     stroke-opacity="0" />
  <path
     transform="matrix(1,0,0,-1,125.28,52.504613)"
     id="path23"
     d="M 28.8,14.4 C 28.8,6.447 22.353,0 14.4,0 6.447,0 0,6.447 0,14.4 c 0,7.953 6.447,14.4 14.4,14.4 7.953,0 14.4,-6.447 14.4,-14.4"
     fill="#000000"
     fill-rule="evenodd"
     stroke="#000000"
     stroke-width="0"
     stroke-linecap="square"
     stroke-linejoin="bevel"
     stroke-opacity="0" />
  <path
     transform="matrix(1,0,0,-1,125.28,130.46869)"
     id="path25"
     d="M 28.8,14.4 C 28.8,6.447 22.353,0 14.4,0 6.447,0 0,6.447 0,14.4 c 0,7.953 6.447,14.4 14.4,14.4 7.953,0 14.4,-6.447 14.4,-14.4"
     fill="#000000"
     fill-rule="evenodd"
     stroke="#000000"
     stroke-width="0"
     stroke-linecap="square"
     stroke-linejoin="bevel"
     stroke-opacity="0" />
</svg>
